<svg width="25" height="31" viewBox="0 0 25 31" fill="none" xmlns="http://www.w3.org/2000/svg">
<path d="M12.5 0C6.0896 0 0.875 5.21521 0.875 11.625C0.875 20.2012 11.6006 30.3945 12.0573 30.8247C12.1821 30.9413 12.3411 31 12.5 31C12.6589 31 12.8179 30.9413 12.9428 30.8247C13.3994 30.3945 24.125 20.2012 24.125 11.625C24.125 5.21521 18.9104 0 12.5 0ZM12.5 18.0834C8.93906 18.0834 6.04165 15.1859 6.04165 11.625C6.04165 8.06406 8.93912 5.16665 12.5 5.16665C16.0609 5.16665 18.9584 8.06412 18.9584 11.625C18.9584 15.1859 16.0609 18.0834 12.5 18.0834Z" fill="white"/>
</svg>
