<svg width="59" height="59" viewBox="0 0 59 59" fill="none" xmlns="http://www.w3.org/2000/svg">
<path d="M29.5 59C45.7924 59 59 45.7924 59 29.5C59 13.2076 45.7924 0 29.5 0C13.2076 0 0 13.2076 0 29.5C0 45.7924 13.2076 59 29.5 59Z" fill="white"/>
<path d="M30.5607 10.7394C29.9749 10.1536 29.0251 10.1536 28.4393 10.7394L18.8934 20.2853C18.3076 20.8711 18.3076 21.8209 18.8934 22.4067C19.4792 22.9924 20.4289 22.9924 21.0147 22.4067L29.5 13.9214L37.9853 22.4067C38.5711 22.9924 39.5208 22.9924 40.1066 22.4067C40.6924 21.8209 40.6924 20.8711 40.1066 20.2853L30.5607 10.7394ZM31 49.5601L31 11.8001L28 11.8001L28 49.5601L31 49.5601Z" fill="#6447AF"/>
</svg>
