<svg width="42" height="62" viewBox="0 0 42 62" fill="none" xmlns="http://www.w3.org/2000/svg">
<path d="M20.024 0.223998C23.9547 0.223998 27.328 0.575997 30.144 1.27999C33.0187 1.92533 35.2187 3.216 36.744 5.152C38.2693 7.02933 39.032 9.816 39.032 13.512C39.032 16.0347 38.7093 18.3813 38.064 20.552C37.4187 22.7227 36.304 24.9813 34.72 27.328C33.1947 29.616 31.0827 32.256 28.384 35.248L11.224 54.08C12.7493 53.9627 14.3627 53.8747 16.064 53.816C17.7653 53.7573 19.408 53.728 20.992 53.728H41.232V62H0.664V56.72C0.664 55.9573 0.752 55.2827 0.928 54.696C1.104 54.1093 1.456 53.5227 1.984 52.936L19.056 33.752C22.8693 29.704 25.6853 26.096 27.504 22.928C29.3813 19.76 30.2613 16.7973 30.144 14.04C30.0853 11.3413 29.088 9.64 27.152 8.936C25.2747 8.232 22.664 7.88 19.32 7.88C17.384 7.88 15.5653 7.90933 13.864 7.968C12.1627 8.02666 10.344 8.17333 8.408 8.408C6.53067 8.584 4.30133 8.848 1.72 9.2L1.192 2.51199C5.35733 1.51466 8.848 0.898665 11.664 0.663998C14.48 0.370665 17.2667 0.223998 20.024 0.223998Z" fill="#00B9AB"/>
</svg>
