<svg width="40" height="64" viewBox="0 0 40 64" fill="none" xmlns="http://www.w3.org/2000/svg">
<path d="M18.968 0.135999C23.4267 0.135999 27.0347 0.575999 29.792 1.456C32.608 2.27733 34.6613 3.71466 35.952 5.76799C37.2427 7.82133 37.888 10.6373 37.888 14.216C37.888 18.2053 37.272 21.5787 36.04 24.336C34.808 27.0933 32.432 28.824 28.912 29.528V29.88C32.9013 30.5253 35.6587 32.168 37.184 34.808C38.7093 37.448 39.5013 40.88 39.56 45.104C39.6187 51.3227 38.1813 55.8987 35.248 58.832C32.3147 61.7067 27.2107 63.144 19.936 63.144C16.6507 63.144 13.336 62.9973 9.992 62.704C6.70667 62.4107 3.50933 62.0293 0.4 61.56L0.928 54.608C4.03733 54.9013 6.912 55.136 9.552 55.312C12.192 55.4293 14.92 55.488 17.736 55.488C22.488 55.488 25.8613 54.6667 27.856 53.024C29.8507 51.3813 30.848 48.4187 30.848 44.136C30.848 42.024 30.5547 40.176 29.968 38.592C29.3813 36.9493 28.2373 35.688 26.536 34.808C24.8933 33.8693 22.488 33.4 19.32 33.4L7.968 33.488V26.888H19.32C22.4293 26.8293 24.688 26.3013 26.096 25.304C27.5627 24.3067 28.5013 23.016 28.912 21.432C29.3227 19.848 29.528 18.1467 29.528 16.328C29.4693 13.864 29.0587 12.016 28.296 10.784C27.592 9.552 26.3893 8.73066 24.688 8.32C22.9867 7.90933 20.64 7.704 17.648 7.704C14.7733 7.704 11.9573 7.792 9.2 7.968C6.50133 8.08533 4.12533 8.20266 2.072 8.32L1.456 1.71999C7.55733 0.663998 13.3947 0.135999 18.968 0.135999Z" fill="#00B9AB"/>
</svg>
