<svg width="38" height="38" viewBox="0 0 38 38" fill="none" xmlns="http://www.w3.org/2000/svg">
<path d="M37.6749 18.1539L26.2755 5.48789C26.0323 5.21937 25.6929 5.06738 25.3332 5.06738H17.7336C17.2346 5.06738 16.7811 5.36123 16.5759 5.81721C16.3733 6.27572 16.4569 6.81022 16.7912 7.18007L27.4281 19L16.7912 30.8173C16.4569 31.1897 16.3707 31.7242 16.5759 32.1802C16.7811 32.6387 17.2346 32.9325 17.7336 32.9325H25.3332C25.6929 32.9325 26.0323 32.778 26.2755 32.5146L37.6749 19.8486C38.1081 19.3673 38.1081 18.6326 37.6749 18.1539Z" fill="#00B9AB"/>
<path d="M21.2093 18.1539L9.80996 5.48789C9.56677 5.21937 9.22732 5.06738 8.86761 5.06738H1.26802C0.768983 5.06738 0.315541 5.36123 0.110352 5.81721C-0.0923039 6.27572 -0.00870844 6.81022 0.325673 7.18007L10.9626 19L0.325673 30.8173C-0.00870844 31.1897 -0.0948371 31.7242 0.110352 32.1802C0.315541 32.6387 0.768983 32.9325 1.26802 32.9325H8.86761C9.22732 32.9325 9.56677 32.778 9.80996 32.5146L21.2093 19.8486C21.6425 19.3673 21.6425 18.6326 21.2093 18.1539Z" fill="#00B9AB"/>
</svg>
